<svg width="20" height="20" viewBox="0 0 20 20" fill="none" xmlns="http://www.w3.org/2000/svg">
<path d="M6.35555 5.64445C6.35555 3.63167 7.98722 2 9.99999 2C12.0128 2 13.6444 3.63167 13.6444 5.64445V5.81539C13.6444 8.52173 14.5795 11.145 16.2913 13.2411L17.0061 14.1163C17.4037 14.6032 17.0573 15.3333 16.4287 15.3333H12.6667C12.6176 15.3333 12.5778 15.3731 12.5778 15.4222V15.4222C12.5778 16.8459 11.4237 18 9.99999 18C8.57632 18 7.42221 16.8459 7.42221 15.4222V15.4222C7.42221 15.3731 7.38242 15.3333 7.33333 15.3333H3.5713C2.9427 15.3333 2.59629 14.6032 2.9939 14.1163L3.70863 13.2411C5.42049 11.145 6.35555 8.52173 6.35555 5.81539V5.64445Z" stroke="#333333"/>
</svg>
