<svg width="27" height="26" viewBox="0 0 27 26" fill="none" xmlns="http://www.w3.org/2000/svg">
<path fill-rule="evenodd" clip-rule="evenodd" d="M9.866 0.771713L25.2208 16.1266L15.7717 25.5757L0.41687 10.2208L9.866 0.771713Z" fill="#5697FA"/>
<path fill-rule="evenodd" clip-rule="evenodd" d="M4.29211 8.70788L8.35304 4.64696C8.66423 5.15631 9.22541 5.49628 9.866 5.49628C10.5066 5.49628 11.0678 5.15631 11.379 4.64696L21.3456 14.6136C20.8362 14.9248 20.4963 15.486 20.4963 16.1265C20.4963 16.7671 20.8362 17.3283 21.3456 17.6395L17.2847 21.7004C16.9735 21.1911 16.4123 20.8511 15.7717 20.8511C15.1311 20.8511 14.5699 21.1911 14.2587 21.7004L4.29211 11.7338C4.80147 11.4226 5.14143 10.8614 5.14143 10.2208C5.14143 9.58026 4.80147 9.01907 4.29211 8.70788Z" fill="white"/>
<path d="M12.8188 17.3077C15.102 17.3077 16.9528 15.4568 16.9528 13.1737C16.9528 10.8906 15.102 9.0397 12.8188 9.0397C10.5357 9.0397 8.68481 10.8906 8.68481 13.1737C8.68481 15.4568 10.5357 17.3077 12.8188 17.3077Z" fill="#5697FA"/>
<path fill-rule="evenodd" clip-rule="evenodd" d="M10.9396 14.6395L10.6752 14.9039C10.4585 15.1206 10.5863 15.5215 11.0176 15.5172C11.0347 15.5167 11.051 15.5097 11.0631 15.4977L11.4207 15.1401C12.1142 15.6927 12.8923 15.7144 13.4146 15.1921C13.9369 14.6698 13.9325 14.0348 13.369 13.0964L13.0916 12.6196C12.8446 12.1341 12.8923 11.9478 13.0678 11.7722C13.2433 11.5967 13.5641 11.588 13.8632 11.8329C13.8994 11.8629 13.9341 11.8948 13.9672 11.9283C14.0542 12.0187 14.1292 12.1199 14.1904 12.2295C14.312 12.4479 14.4053 12.681 14.4678 12.923C14.4852 13.0045 14.525 13.0796 14.5827 13.1397C14.7512 13.3049 15.021 13.3049 15.1895 13.1397C15.3046 13.0272 15.3436 12.8578 15.2892 12.7063C15.2097 12.3457 15.0521 12.0069 14.8276 11.7137L15.1613 11.38C15.1734 11.3678 15.1804 11.3515 15.1809 11.3344C15.1809 10.901 14.7734 10.784 14.5675 10.992L14.3508 11.2087C13.6746 10.6561 12.9096 10.6323 12.4003 11.1524C11.891 11.6725 11.8758 12.288 12.4306 13.2351L12.7167 13.7032C12.9746 14.1952 12.9334 14.3946 12.7449 14.5701C12.5282 14.7868 12.2377 14.763 11.9213 14.5094C11.9213 14.5094 11.8802 14.4726 11.8216 14.4141C11.7298 14.323 11.6457 14.2244 11.5702 14.1193C11.3772 13.8124 11.2482 13.4696 11.191 13.1116C11.1865 12.9393 11.0803 12.7861 10.9207 12.7213C10.761 12.6565 10.5782 12.6924 10.4549 12.8128C10.3316 12.9332 10.2913 13.1151 10.3523 13.2763C10.4303 13.7728 10.6323 14.2417 10.9396 14.6395Z" fill="white"/>
<path fill-rule="evenodd" clip-rule="evenodd" d="M20 6L18.6968 4.78397C17.0813 3.27642 14.5048 3.32124 12.9399 4.88609L9.86597 7.96002C11.1706 9.26467 14 8.55059 14 8.55059L15.7717 6.77888L23.95 15H27V6H20Z" fill="#0864EE"/>
<mask id="mask0_898_997" style="mask-type:alpha" maskUnits="userSpaceOnUse" x="3" y="11" width="14" height="13">
<path d="M6.40166 11.6266C6.74802 11.2802 7.20158 11.1068 7.65544 11.1068C8.0771 11.1068 8.49848 11.2566 8.83451 11.556C9.4555 12.2526 9.43276 13.3203 8.76394 13.9888L6.54694 16.2061C5.87841 16.8744 4.81066 16.8989 4.11319 16.2755C3.49309 15.5792 3.51613 14.5121 4.18465 13.8438L6.40166 11.6266ZM8.76394 13.9888C9.11031 13.6425 9.56416 13.4691 10.018 13.4691C10.4394 13.4691 10.8608 13.6185 11.1965 13.9183C11.8178 14.6145 11.795 15.6826 11.1262 16.3511L8.90922 18.5684C8.24099 19.2364 7.17412 19.2612 6.47636 18.6387C5.85538 17.9427 5.87811 16.8747 6.54694 16.2061L8.76394 13.9888ZM11.1262 16.3511C11.4726 16.0047 11.9261 15.8314 12.38 15.8314C12.802 15.8314 13.2239 15.9814 13.56 16.2817C14.1801 16.978 14.157 18.0449 13.4885 18.7134L11.2715 20.9307C10.6033 21.5986 9.5364 21.6234 8.83864 21.001C8.21766 20.305 8.2404 19.2369 8.90922 18.5684L11.1262 16.3511ZM13.4885 18.7134C13.8349 18.367 14.2887 18.1937 14.7423 18.1937C15.1642 18.1937 15.5862 18.3437 15.9222 18.644C16.5423 19.3403 16.519 20.4072 15.8508 21.0757L13.6335 23.293C12.9658 23.9609 11.8987 23.9857 11.2012 23.3636C10.5799 22.6673 10.6027 21.5992 11.2715 20.9307L13.4885 18.7134Z" fill="white"/>
</mask>
<g mask="url(#mask0_898_997)">
<path d="M6.40166 11.6266C6.74802 11.2802 7.20158 11.1068 7.65544 11.1068C8.0771 11.1068 8.49848 11.2566 8.83451 11.556C9.4555 12.2526 9.43276 13.3203 8.76394 13.9888L6.54694 16.2061C5.87841 16.8744 4.81066 16.8989 4.11319 16.2755C3.49309 15.5792 3.51613 14.5121 4.18465 13.8438L6.40166 11.6266ZM8.76394 13.9888C9.11031 13.6425 9.56416 13.4691 10.018 13.4691C10.4394 13.4691 10.8608 13.6185 11.1965 13.9183C11.8178 14.6145 11.795 15.6826 11.1262 16.3511L8.90922 18.5684C8.24099 19.2364 7.17412 19.2612 6.47636 18.6387C5.85538 17.9427 5.87811 16.8747 6.54694 16.2061L8.76394 13.9888ZM11.1262 16.3511C11.4726 16.0047 11.9261 15.8314 12.38 15.8314C12.802 15.8314 13.2239 15.9814 13.56 16.2817C14.1801 16.978 14.157 18.0449 13.4885 18.7134L11.2715 20.9307C10.6033 21.5986 9.5364 21.6234 8.83864 21.001C8.21766 20.305 8.2404 19.2369 8.90922 18.5684L11.1262 16.3511ZM13.4885 18.7134C13.8349 18.367 14.2887 18.1937 14.7423 18.1937C15.1642 18.1937 15.5862 18.3437 15.9222 18.644C16.5423 19.3403 16.519 20.4072 15.8508 21.0757L13.6335 23.293C12.9658 23.9609 11.8987 23.9857 11.2012 23.3636C10.5799 22.6673 10.6027 21.5992 11.2715 20.9307L13.4885 18.7134Z" fill="#0864EE"/>
</g>
</svg>
