<svg width="24" height="16" viewBox="0 0 24 16" fill="none" xmlns="http://www.w3.org/2000/svg">
<path fill-rule="evenodd" clip-rule="evenodd" d="M1.584 0H22.416C23.2908 0 24 0.709181 24 1.584V14.416C24 15.2908 23.2908 16 22.416 16H1.584C0.709181 16 0 15.2908 0 14.416L0 1.584H0C0 0.709181 0.709181 0 1.584 0V0Z" fill="#5697FA"/>
<path d="M24 3H0V6H24V3Z" fill="#0864EE"/>
<path d="M22 7H2V10H22V7Z" fill="white"/>
<path d="M11.5 13H2.5C2.22386 13 2 13.2239 2 13.5C2 13.7761 2.22386 14 2.5 14H11.5C11.7761 14 12 13.7761 12 13.5C12 13.2239 11.7761 13 11.5 13Z" fill="#0864EE"/>
<path d="M16.5 11H2.5C2.22386 11 2 11.2239 2 11.5C2 11.7761 2.22386 12 2.5 12H16.5C16.7761 12 17 11.7761 17 11.5C17 11.2239 16.7761 11 16.5 11Z" fill="#0864EE"/>
</svg>
