<svg width="57" height="40" viewBox="0 0 57 40" fill="none" xmlns="http://www.w3.org/2000/svg">
<path d="M8.27054 6.82922C7.43427 5.93149 7.62651 4.56808 9.01069 4.42886C8.63581 3.41111 8.73674 2.90223 9.62107 2.21093C10.467 1.54843 11.3561 0.933937 12.2693 0.372253C13.2017 -0.203834 13.7784 -0.107819 14.5666 0.636293C15.3164 1.342 16.0517 2.06691 16.7774 2.79182C16.9312 2.94544 17.0562 2.98865 17.2725 2.92624C22.3526 1.55803 27.5192 1.20758 32.7387 1.80767C34.6275 2.0237 36.4875 2.47017 38.3571 2.83022C38.5974 2.87823 38.7416 2.83982 38.9146 2.6718C39.6644 1.93249 40.4286 1.20758 41.1831 0.468267C41.6493 0.0121988 42.1924 -0.0838156 42.7836 0.137018C43.0672 0.242633 43.3507 0.381854 43.6054 0.54988C44.2783 0.991546 44.9367 1.45242 45.6 1.90848C45.7826 2.0381 45.9556 2.18212 46.1191 2.33575C46.8496 3.03185 46.9505 3.50232 46.566 4.41926C47.8445 4.80812 48.1713 5.59064 47.4648 6.6468C47.8493 6.91084 48.2386 7.17007 48.6183 7.43892C51.0406 9.16718 53.0976 11.2267 54.501 13.8815C55.3373 15.4609 55.8419 17.1508 55.9621 18.927C56.3322 24.4383 54.4866 29.0902 50.3773 32.7963C47.2245 35.6336 43.4901 37.405 39.4337 38.538C36.8095 39.2677 34.1373 39.6902 31.4218 39.8774C26.856 40.1894 22.3286 39.9254 17.8684 38.8596C14.4561 38.0435 11.2263 36.7761 8.29457 34.8174C5.12731 32.6955 2.57524 30.0263 1.15742 26.4306C-0.164273 23.0797 -0.366132 19.6279 0.614325 16.1618C1.34486 13.5694 2.86361 11.4187 4.81972 9.60404C5.84823 8.6487 7.00652 7.83257 8.10713 6.95404C8.16 6.91084 8.21767 6.87243 8.27054 6.82922ZM42.5721 5.17778C42.9422 5.26899 43.3171 5.38421 43.6968 5.43701C43.889 5.46582 44.1533 5.45142 44.2831 5.3362C44.7397 4.94734 45.1915 4.54408 45.576 4.08321C45.9653 3.61274 45.9557 3.43511 45.4558 3.05586C44.5619 2.37895 43.6343 1.74526 42.6923 1.14037C42.2549 0.857126 42.1107 0.914734 41.7262 1.29399C40.7842 2.21093 39.8566 3.13747 38.9098 4.05441C37.1748 5.73466 35.7233 7.61654 34.7381 9.83447C33.4116 12.8301 32.0995 15.8306 30.7826 18.831C30.2347 20.0744 29.6724 21.313 29.1629 22.5756C28.7832 23.5165 28.4756 24.4911 28.4901 25.5328C28.5045 26.5554 28.9899 27.3043 29.9655 27.5923C30.5711 27.77 31.2152 27.8564 31.8496 27.9044C34.9207 28.1588 37.987 28.4517 41.0774 28.274C43.6487 28.1252 46.2008 27.8516 48.7144 27.2851C49.1133 27.1939 49.5362 27.1315 49.9448 27.1507C50.6032 27.1747 51.1031 27.5155 51.4058 28.1348C51.4731 28.0724 51.5116 28.0436 51.5404 28.0052C52.6651 26.733 53.5542 25.3216 54.1694 23.7374C54.6452 22.5084 54.7509 21.2074 54.9336 19.9208C54.9672 19.6808 54.823 19.6568 54.6404 19.6279C52.5449 19.3255 50.4542 19.4167 48.3683 19.7C44.7926 20.1896 41.3513 21.1642 38.0015 22.4988C37.3478 22.758 36.7038 23.0413 36.0357 23.3245C36.0405 23.2573 36.0309 23.2189 36.0453 23.1901C36.7615 21.7019 36.8816 20.0936 36.9345 18.4854C36.9729 17.3284 36.9201 16.1666 36.8864 15.0097C36.8384 13.267 37.2373 11.6059 37.8188 9.9833C38.0111 9.45042 38.2177 8.91754 38.4677 8.41346C38.7224 7.89978 39.1309 7.67415 39.6211 7.78937C40.5295 8.0054 41.3706 7.78457 42.1684 7.40531C43.293 6.86763 44.4706 6.55558 45.6913 6.36355C46.0133 6.31555 46.3353 6.20993 46.6237 6.05631C46.7439 5.9939 46.7871 5.74426 46.8015 5.57143C46.8063 5.53303 46.5372 5.40341 46.417 5.42741C45.797 5.56663 45.153 5.66745 44.5811 5.92189C44.1101 6.13312 43.7064 6.23873 43.2402 5.9987C43.1585 5.95549 43.0623 5.93629 42.9758 5.89788C42.5144 5.70105 42.1348 5.79707 41.8031 6.18113C41.5628 6.45957 41.3033 6.72361 41.0197 6.94924C40.6689 7.23248 40.3372 7.23728 39.9864 7.00685C40.1017 6.91084 40.2171 6.82442 40.318 6.72841C40.9188 6.10912 41.5244 5.49462 42.1107 4.86093C42.3991 4.54888 42.4327 4.18883 42.1972 3.81917C42.1011 3.67035 42.0242 3.51192 41.9425 3.3535C41.9713 3.3295 41.9954 3.30549 42.0242 3.28629C42.3318 3.53113 42.6394 3.78077 43.0191 4.08321C43.2065 3.72796 43.3844 3.39191 43.5766 3.02705C43.6006 3.28149 43.6391 3.52633 43.6391 3.76636C43.6391 4.11201 43.9034 4.10721 44.0909 4.12642C43.9563 4.29924 43.8313 4.46727 43.6968 4.6449C42.9854 4.21283 42.7547 4.29924 42.5721 5.17778ZM4.34871 27.8276C4.87739 27.2803 5.28591 27.1027 6.00203 27.1459C6.31924 27.1651 6.63645 27.2275 6.94404 27.2995C9.84696 27.9428 12.7883 28.3125 15.7537 28.3077C18.2385 28.3029 20.7233 28.1012 23.2033 27.9524C23.9915 27.9044 24.7893 27.8084 25.5487 27.6115C26.558 27.3571 27.0578 26.6034 27.077 25.5616C27.0963 24.6303 26.8656 23.747 26.5291 22.902C25.9764 21.5194 25.3661 20.1608 24.7749 18.7926C23.6262 16.1474 22.4776 13.4974 21.3145 10.857C20.5743 9.17678 19.7957 7.49172 18.5461 6.12352C17.0081 4.43846 15.3644 2.84943 13.7736 1.21238C13.5381 0.972343 13.2834 0.95314 12.9998 1.08756C12.8316 1.16917 12.6586 1.25559 12.5 1.3612C11.9088 1.75486 11.3176 2.14852 10.7409 2.56138C10.4429 2.77261 10.1738 3.02225 9.90464 3.27189C9.70758 3.45432 9.67394 3.68475 9.86138 3.90558C10.1786 4.27044 10.4766 4.6545 10.8274 4.98575C11.4522 5.57143 12.2597 5.60504 12.9998 5.12017C12.822 4.33285 12.6874 4.28004 11.8992 4.61609C11.7358 4.43366 11.5916 4.27524 11.4522 4.11682C11.8271 4.18403 11.9424 3.97759 11.9376 3.63194C11.9376 3.43991 11.9761 3.24308 11.9953 3.05586C12.1828 3.39191 12.3702 3.72796 12.5576 4.05921C12.9421 3.76156 13.2449 3.52633 13.5477 3.29109C13.5717 3.3151 13.5958 3.3439 13.6198 3.3679C13.5765 3.44952 13.5429 3.53113 13.4948 3.60794C13.1055 4.24163 13.1007 4.47207 13.5958 5.02895C14.086 5.57624 14.6147 6.08511 15.1337 6.60359C15.2779 6.74761 15.4558 6.86283 15.672 7.03565C15.2154 7.23248 14.8982 7.19888 14.6291 6.99725C14.3407 6.77642 14.0716 6.52198 13.8217 6.25794C13.3218 5.73466 13.1728 5.65305 12.5192 5.94109C11.9088 6.21473 11.3994 6.12832 10.8082 5.84027C10.2939 5.59064 9.67875 5.53783 9.10201 5.42741C8.99627 5.40821 8.77038 5.51383 8.76077 5.58584C8.74154 5.72506 8.79922 5.91229 8.89053 6.0227C8.97705 6.13312 9.14526 6.19553 9.28945 6.23393C9.52976 6.30114 9.77487 6.34435 10.02 6.38276C11.1206 6.56038 12.1924 6.82922 13.2065 7.3141C14.0812 7.73656 14.9847 8.0102 15.9892 7.77977C16.4602 7.66935 16.8303 7.91419 17.0514 8.32225C17.2581 8.70631 17.4215 9.11437 17.5753 9.52243C18.2433 11.2699 18.7287 13.051 18.6759 14.9472C18.6422 16.1282 18.599 17.314 18.6326 18.495C18.6759 20.084 18.8105 21.6635 19.5025 23.1373C19.5266 23.1853 19.5266 23.2429 19.5506 23.3389C19.4497 23.3005 19.3824 23.2861 19.3247 23.2573C15.8979 21.6346 12.3125 20.5209 8.57813 19.9016C6.24234 19.5127 3.89213 19.3927 1.5323 19.7192C1.26316 19.7576 1.18626 19.8536 1.18145 20.1224C1.12858 21.7931 1.63323 23.3197 2.33493 24.7983C2.86842 25.8929 3.54128 26.8866 4.34871 27.8276ZM27.8076 26.9731C27.6298 27.2179 27.4904 27.4531 27.3126 27.65C26.6637 28.3605 25.813 28.6917 24.8854 28.7733C22.6458 28.9654 20.4013 29.119 18.152 29.2678C16.3401 29.3878 14.5282 29.3158 12.721 29.1382C10.5535 28.9269 8.39069 28.6677 6.26156 28.1684C6.00203 28.106 5.68963 28.1396 5.4301 28.2164C5.10809 28.3077 5.05522 28.6101 5.29553 28.8165C6.27598 29.6519 7.21799 30.5448 8.26573 31.2889C10.5583 32.9211 13.1151 34.0397 15.7874 34.9182C19.1901 36.032 22.6842 36.6129 26.2504 36.7569C29.9848 36.9057 33.6807 36.5985 37.3286 35.7392C40.5439 34.9807 43.6006 33.8333 46.4507 32.153C47.9021 31.2985 49.2479 30.2903 50.4686 29.1238C50.6369 28.9654 50.6657 28.8501 50.5503 28.6437C50.2956 28.178 50.0072 28.0244 49.3921 28.1636C46.3978 28.8261 43.3699 29.2054 40.3084 29.3014C37.1267 29.3974 33.9643 29.1046 30.8018 28.7973C29.5426 28.6629 28.4372 28.202 27.8076 26.9731ZM17.854 3.84317C18.003 4.0016 18.0943 4.10721 18.1905 4.20323C19.5554 5.54743 20.6512 7.09806 21.4394 8.82632C23.3138 12.9357 25.1161 17.0788 26.9377 21.2122C27.2597 21.9419 27.5096 22.7004 27.7932 23.4445C27.8076 23.4349 27.8364 23.4253 27.8412 23.4061C28.3459 22.1435 28.8169 20.8713 29.3552 19.6231C30.6913 16.5171 32.0514 13.4206 33.4164 10.3241C34.2478 8.43266 35.2331 6.62759 36.5981 5.05776C36.9777 4.62569 37.3815 4.21283 37.8092 3.74236C31.1335 2.17732 24.5298 2.19653 17.854 3.84317ZM54.8326 18.615C54.8326 18.5718 54.8374 18.5238 54.8326 18.4806C54.6308 16.7523 54.0636 15.1441 53.1649 13.6558C51.5308 10.9482 49.2286 8.93194 46.5468 7.30449C46.4747 7.26129 46.3642 7.23729 46.2825 7.25169C45.0761 7.43411 43.8938 7.68855 42.7692 8.20223C41.7599 8.6631 40.7265 9.03756 39.5779 8.75911C39.501 8.73991 39.3472 8.85513 39.2991 8.94634C39.1549 9.22958 39.0444 9.53203 38.929 9.82967C38.2129 11.678 37.7756 13.555 37.8957 15.5713C37.987 17.0404 37.8669 18.5238 37.814 20.0024C37.7948 20.5113 37.6939 21.0202 37.6314 21.5434C37.7035 21.529 37.7371 21.529 37.7708 21.5194C40.0873 20.6073 42.4616 19.8824 44.8887 19.3255C47.1716 18.8022 49.4786 18.471 51.8192 18.4662C52.8189 18.4662 53.8089 18.5622 54.8326 18.615ZM17.9357 21.5242C17.9405 21.4666 17.9453 21.433 17.9405 21.3994C17.5897 19.3927 17.5512 17.3668 17.681 15.3457C17.8252 13.075 17.1427 11.0011 16.2968 8.95594C16.2344 8.79752 16.1526 8.71111 15.9508 8.76391C15.2395 8.94634 14.5378 8.84553 13.8553 8.61029C12.8316 8.25504 11.8175 7.85178 10.7794 7.53013C10.2891 7.37651 9.75084 7.14127 9.24139 7.45812C7.24683 8.6967 5.45413 10.1801 3.99306 12.0284C2.5416 13.8671 1.58036 15.9218 1.24393 18.2549C1.2199 18.423 1.22471 18.591 1.21509 18.7638C7.08822 18.0005 12.5384 19.4791 17.9357 21.5242Z" fill="#2D3473"/>
<path d="M42.5721 5.17776C42.7548 4.29923 42.9855 4.21282 43.7016 4.64008C43.8362 4.46245 43.9611 4.29923 44.0957 4.1216C43.9083 4.1024 43.6487 4.1072 43.6439 3.76155C43.6439 3.52151 43.6055 3.27668 43.5814 3.02224C43.3892 3.38709 43.2114 3.72314 43.0239 4.0784C42.6442 3.77595 42.3366 3.52631 42.029 3.28148C42.0002 3.30548 41.9762 3.32948 41.9473 3.34869C42.0339 3.50231 42.1107 3.66553 42.2021 3.81436C42.4376 4.18881 42.4039 4.54887 42.1156 4.85611C41.5292 5.48981 40.9236 6.1043 40.3229 6.72359C40.2267 6.82441 40.1066 6.90602 39.9912 7.00204C40.3421 7.23247 40.6737 7.22767 41.0246 6.94443C41.3081 6.71399 41.5677 6.44995 41.808 6.17631C42.1396 5.79225 42.5193 5.69624 42.9807 5.89307C43.0672 5.93147 43.1633 5.95068 43.245 5.99388C43.7112 6.23872 44.1149 6.1283 44.5859 5.91707C45.1579 5.66263 45.8019 5.55702 46.4219 5.4226C46.542 5.39859 46.8112 5.52341 46.8064 5.56662C46.792 5.73464 46.7487 5.98428 46.6285 6.05149C46.345 6.20512 46.0182 6.31073 45.6961 6.35874C44.4754 6.55077 43.2931 6.86281 42.1732 7.4005C41.3754 7.77975 40.5343 8.00059 39.626 7.78455C39.1309 7.66934 38.7224 7.89497 38.4725 8.40865C38.2226 8.91752 38.0111 9.4456 37.8237 9.97848C37.2421 11.6011 36.8432 13.2622 36.8913 15.0048C36.9249 16.1618 36.9778 17.3236 36.9393 18.4806C36.8865 20.0888 36.7663 21.697 36.0502 23.1853C36.0358 23.2141 36.0454 23.2525 36.0406 23.3197C36.7086 23.0364 37.3526 22.7532 38.0063 22.494C41.3514 21.1642 44.7974 20.1848 48.3732 19.6951C50.4591 19.4119 52.5497 19.3207 54.6452 19.6231C54.8279 19.6471 54.972 19.6759 54.9384 19.916C54.7558 21.2026 54.65 22.5036 54.1742 23.7326C53.559 25.3168 52.6651 26.7282 51.5452 28.0004C51.5164 28.034 51.478 28.0628 51.4107 28.13C51.1079 27.5107 50.608 27.1699 49.9496 27.1459C49.5411 27.1315 49.1229 27.1891 48.7192 27.2803C46.2056 27.8516 43.6487 28.1252 41.0822 28.2692C37.9967 28.4469 34.9255 28.1492 31.8544 27.8996C31.22 27.8468 30.576 27.7652 29.9704 27.5875C28.9899 27.2995 28.5093 26.5506 28.4949 25.528C28.4805 24.4863 28.7833 23.5165 29.1678 22.5708C29.6772 21.3082 30.2443 20.0696 30.7874 18.8262C32.1043 15.8258 33.4164 12.8253 34.7429 9.82966C35.7234 7.61173 37.1748 5.72504 38.9147 4.04959C39.8615 3.13745 40.7891 2.20611 41.7311 1.28918C42.1204 0.909919 42.2597 0.857111 42.6971 1.13555C43.6391 1.74524 44.5715 2.37414 45.4606 3.05104C45.9605 3.4303 45.9701 3.60793 45.5808 4.0784C45.2011 4.53927 44.7493 4.94253 44.2879 5.33138C44.1582 5.4418 43.8938 5.4562 43.7016 5.4322C43.3171 5.38419 42.947 5.26898 42.5721 5.17776ZM6.00205 27.1411C6.31926 27.1603 6.63647 27.2227 6.94406 27.2947C9.84698 27.938 12.7884 28.3076 15.7538 28.3028C18.2385 28.298 20.7233 28.0964 23.2033 27.9476C23.9915 27.8996 24.7893 27.8036 25.5487 27.6067C26.558 27.3523 27.0578 26.5986 27.0771 25.5568C27.0963 24.6255 26.8656 23.7422 26.5292 22.8972C25.9765 21.5146 25.3661 20.156 24.7749 18.7878C23.6262 16.1426 22.4776 13.4926 21.3145 10.8522C20.5743 9.17196 19.7957 7.48691 18.5461 6.1187C17.0082 4.43365 15.3645 2.84461 13.7736 1.20756C13.5381 0.967528 13.2834 0.948325 12.9998 1.08275C12.8316 1.16436 12.6586 1.25077 12.5 1.35639C11.9088 1.75005 11.3177 2.1437 10.7409 2.55657C10.4429 2.7678 10.1738 3.01744 9.90466 3.26707C9.70761 3.4495 9.67396 3.67994 9.8614 3.90077C10.1786 4.26562 10.4766 4.64968 10.8274 4.98093C11.4522 5.56662 12.2597 5.60022 12.9998 5.11535C12.822 4.32803 12.6874 4.27523 11.8992 4.61128C11.7358 4.42885 11.5916 4.27042 11.4522 4.112C11.8271 4.17921 11.9425 3.97278 11.9377 3.62713C11.9377 3.4351 11.9761 3.23827 11.9953 3.05104C12.1828 3.38709 12.3702 3.72314 12.5577 4.05439C12.9422 3.75675 13.2449 3.52151 13.5477 3.28628C13.5718 3.31028 13.5958 3.33908 13.6198 3.36309C13.5766 3.4447 13.5429 3.52631 13.4949 3.60312C13.1056 4.23682 13.1008 4.46725 13.5958 5.02414C14.086 5.57142 14.6147 6.0803 15.1338 6.59877C15.2779 6.7428 15.4558 6.85801 15.6721 7.03084C15.2155 7.22767 14.8983 7.19406 14.6291 6.99243C14.3407 6.7716 14.0716 6.51716 13.8217 6.25312C13.3218 5.72984 13.1728 5.64823 12.5192 5.93628C11.9088 6.20992 11.3994 6.1235 10.8082 5.83546C10.294 5.58582 9.67877 5.53301 9.10203 5.4226C8.99629 5.4034 8.7704 5.50901 8.76079 5.58102C8.74157 5.72024 8.79924 5.90747 8.89056 6.01789C8.97707 6.1283 9.14528 6.19071 9.28947 6.22912C9.52978 6.29633 9.77489 6.33954 10.02 6.37794C11.1206 6.55557 12.1924 6.82441 13.2065 7.30928C14.0812 7.73175 14.9848 8.00539 15.9893 7.77495C16.4603 7.66454 16.8303 7.90937 17.0514 8.31743C17.2581 8.70149 17.4215 9.10955 17.5753 9.51761C18.2433 11.2651 18.7288 13.0461 18.6759 14.9424C18.6423 16.1234 18.599 17.3092 18.6326 18.4902C18.6759 20.0792 18.8105 21.6586 19.5026 23.1325C19.5266 23.1805 19.5266 23.2381 19.5506 23.3341C19.4497 23.2957 19.3824 23.2813 19.3247 23.2525C15.8979 21.6298 12.3125 20.5161 8.57816 19.8968C6.24236 19.5079 3.89215 19.3879 1.53232 19.7143C1.26318 19.7528 1.18628 19.8488 1.18147 20.1176C1.1286 21.7883 1.63325 23.3149 2.33495 24.7935C2.85882 25.8881 3.53169 26.8818 4.33912 27.818C4.87741 27.2803 5.28593 27.1027 6.00205 27.1411Z" fill="white"/>
<path d="M27.8076 26.973C28.4372 28.202 29.5474 28.6629 30.8066 28.7877C33.9643 29.095 37.1315 29.3878 40.3132 29.2918C43.3747 29.2006 46.4026 28.8165 49.3969 28.154C50.0121 28.0196 50.3004 28.1684 50.5551 28.6341C50.6657 28.8405 50.6369 28.9509 50.4734 29.1142C49.2527 30.2807 47.9118 31.2889 46.4555 32.1434C43.6054 33.8237 40.5487 34.971 37.3334 35.7295C33.6903 36.5889 29.9896 36.8961 26.2552 36.7473C22.6842 36.6033 19.1901 36.0224 15.7922 34.9086C13.12 34.0349 10.5679 32.9115 8.27053 31.2793C7.22279 30.5352 6.28078 29.6422 5.30033 28.8069C5.05521 28.6005 5.11289 28.298 5.4349 28.2068C5.69924 28.13 6.00683 28.0964 6.26637 28.1588C8.39549 28.6581 10.5583 28.9173 12.7258 29.1286C14.533 29.3062 16.3449 29.3734 18.1568 29.2582C20.4013 29.1142 22.6458 28.9557 24.8902 28.7637C25.8178 28.6869 26.6685 28.3556 27.3174 27.6403C27.4904 27.4531 27.6298 27.2179 27.8076 26.973ZM18.1905 4.20321C19.5554 5.54742 20.6512 7.09805 21.4394 8.82631C23.3138 12.9357 25.1161 17.0787 26.9377 21.2122C27.2597 21.9419 27.5096 22.7004 27.7932 23.4445C27.8076 23.4349 27.8364 23.4253 27.8412 23.4061C28.3459 22.1435 28.8169 20.8713 29.3552 19.6231C30.6913 16.5171 32.0514 13.4206 33.4164 10.3241C34.2478 8.43265 35.2331 6.62758 36.5981 5.05774C36.9777 4.62568 37.3815 4.21282 37.8092 3.74235C31.1334 2.17731 24.5298 2.19651 17.854 3.84316C17.9982 3.99678 18.0895 4.1024 18.1905 4.20321ZM54.8326 18.4806C54.6308 16.7523 54.0637 15.1441 53.1649 13.6558C51.5308 10.9482 49.2286 8.93192 46.5468 7.30448C46.4747 7.26127 46.3642 7.23727 46.2825 7.25167C45.0761 7.4341 43.8938 7.68854 42.7692 8.20222C41.7599 8.66308 40.7265 9.03754 39.5779 8.7591C39.501 8.7399 39.3472 8.85511 39.2991 8.94633C39.1549 9.22957 39.0444 9.53202 38.929 9.82966C38.2129 11.6779 37.7756 13.555 37.8957 15.5713C37.987 17.0403 37.8669 18.5238 37.814 20.0024C37.7948 20.5113 37.6939 21.0201 37.6314 21.5434C37.7035 21.529 37.7371 21.529 37.7708 21.5194C40.0873 20.6073 42.4616 19.8824 44.8887 19.3255C47.1716 18.8022 49.4786 18.471 51.8192 18.4662C52.8092 18.4614 53.7993 18.5574 54.8278 18.6102C54.8326 18.5718 54.8374 18.5238 54.8326 18.4806ZM17.9405 21.3994C17.5897 19.3927 17.5512 17.3668 17.681 15.3457C17.8252 13.0749 17.1427 11.001 16.2968 8.95593C16.2343 8.79751 16.1526 8.71109 15.9508 8.7639C15.2395 8.94633 14.5378 8.84551 13.8553 8.61028C12.8316 8.25502 11.8175 7.85176 10.7794 7.53011C10.2891 7.37649 9.75083 7.14126 9.24138 7.4581C7.24682 8.69669 5.45412 10.1801 3.99305 12.0284C2.54159 13.8671 1.58036 15.9218 1.24393 18.2549C1.21989 18.423 1.2247 18.591 1.21509 18.7638C7.08822 18.0053 12.5384 19.4791 17.9357 21.5242C17.9357 21.4666 17.9453 21.433 17.9405 21.3994Z" fill="#F4D147"/>
</svg>
