<svg width="89" height="35" viewBox="0 0 89 35" fill="none" xmlns="http://www.w3.org/2000/svg">
<path d="M17.3238 9.82536C17.3383 12.0097 17.3287 14.194 17.3287 16.3783C17.3287 16.4744 17.3287 16.5656 17.3287 16.6808C16.3578 16.6808 15.4302 16.6808 14.4738 16.6808C14.4738 16.58 14.4738 16.484 14.4738 16.3927C14.4738 14.0884 14.4786 11.7841 14.469 9.4797C14.4642 8.7692 14.3008 8.0923 13.6856 7.65543C12.9502 7.13215 12.1332 7.11775 11.3402 7.4922C10.5375 7.87146 10.1867 8.57237 10.1819 9.4413C10.1723 11.256 10.1819 13.0754 10.1819 14.8901C10.1819 15.4806 10.1819 16.0711 10.1819 16.676C9.22066 16.676 8.27865 16.676 7.31742 16.676C7.31742 16.58 7.31742 16.4936 7.31742 16.4072C7.31742 14.0692 7.32703 11.736 7.3078 9.3981C7.303 9.06204 7.23091 8.71159 7.11075 8.39474C6.8368 7.67943 6.26967 7.33858 5.51991 7.27137C4.64519 7.19936 3.90504 7.4394 3.39559 8.20271C3.11202 8.62998 3.03513 9.11965 3.03513 9.62373C3.03513 11.8705 3.03513 14.122 3.03513 16.3687C3.03513 16.4648 3.03513 16.5608 3.03513 16.6712C2.08831 16.6712 1.15592 16.6712 0.209102 16.6712C0.204296 16.628 0.194684 16.5896 0.194684 16.5512C0.194684 14.0692 0.161041 11.592 0.218715 9.11005C0.252358 7.68904 0.809873 6.45045 1.90568 5.4999C2.92458 4.61657 4.14054 4.29012 5.46704 4.34293C6.79835 4.39574 7.90857 4.92862 8.84097 6.04239C8.87942 5.96078 8.89864 5.87437 8.95151 5.81676C9.8743 4.82781 11.0182 4.33333 12.3687 4.33333C13.6616 4.33333 14.8343 4.67418 15.8003 5.57672C16.5693 6.29683 17.0163 7.19936 17.1941 8.22192C17.2806 8.7548 17.319 9.29248 17.3238 9.82536ZM5.49064 21.9088C6.53357 21.9088 7.55729 21.9088 8.58581 21.9088C8.58581 20.8814 8.58581 19.8637 8.58581 18.8459C7.53806 18.8459 6.51435 18.8459 5.49064 18.8459C5.49064 19.8829 5.49064 20.8958 5.49064 21.9088ZM43.1137 16.7144C44.1711 16.9832 45.2428 17.036 46.329 16.8824C48.1506 16.6232 49.4819 15.6774 50.3326 14.0548C50.6257 13.4979 50.8132 12.9122 50.8516 12.2401C50.7363 12.2401 50.6594 12.2401 50.5777 12.2401C49.6741 12.2401 48.7658 12.2449 47.8622 12.2353C47.6219 12.2305 47.4633 12.2593 47.4681 12.5522C47.4729 12.6818 47.4152 12.8162 47.372 12.9458C47.1509 13.5891 46.7952 14.1076 46.0839 14.2708C45.8773 14.3188 45.6562 14.338 45.4447 14.3572C44.3393 14.4533 43.4213 13.906 43.056 12.8594C42.5706 11.4624 42.5898 10.0414 43.0272 8.64438C43.3252 7.68903 43.9981 7.09375 45.0362 7.00733C46.3002 6.89692 47.199 7.37699 47.5017 8.70679C47.5162 8.774 47.5402 8.84121 47.5594 8.89402C48.6792 8.89402 49.7799 8.89402 50.9045 8.89402C50.8468 8.58197 50.8036 8.28913 50.7411 8.00109C50.4047 6.40244 49.4915 5.30788 47.9151 4.7846C46.6607 4.36694 45.3774 4.27572 44.0749 4.46295C42.1813 4.73659 40.7347 5.69673 39.9705 7.4682C39.0285 9.65733 39.0093 11.8993 39.9849 14.098C40.5953 15.4614 41.6574 16.3447 43.1137 16.7144ZM59.3441 8.1019C59.3345 7.64103 59.1807 7.24737 58.7097 7.06494C57.9359 6.7673 57.1477 6.7433 56.3547 6.96893C55.7395 7.14176 55.4607 7.62663 55.3069 8.20271C55.2829 8.28433 55.2685 8.37074 55.2445 8.46195C54.2448 8.46195 53.2547 8.46195 52.2646 8.46195C52.3223 6.87291 53.0577 5.41829 54.6821 4.7798C55.5088 4.45815 56.3691 4.35253 57.2438 4.33813C58.4694 4.31893 59.6469 4.51576 60.7619 5.03904C61.7088 5.4807 62.2134 6.23442 62.3624 7.24257C62.4057 7.53541 62.4201 7.83306 62.4201 8.1259C62.4249 9.55652 62.4249 10.9919 62.4201 12.4226C62.4153 13.6659 62.074 14.7749 61.0984 15.615C60.4928 16.1383 59.7815 16.4552 59.0077 16.6376C57.5178 16.9928 56.0086 17.0697 54.5091 16.7672C52.8462 16.4312 51.8705 15.1734 51.8609 13.4739C51.8561 12.4274 52.0868 11.472 52.8654 10.7183C53.447 10.1518 54.1631 9.83496 54.9417 9.68614C55.8645 9.50851 56.8065 9.40289 57.7341 9.24447C58.0705 9.18686 58.4069 9.10045 58.7241 8.98043C59.123 8.84121 59.3537 8.53877 59.3441 8.1019ZM59.272 10.7807C58.6953 11.1456 58.0272 11.2176 57.3832 11.3616C56.8257 11.4864 56.2586 11.6112 55.7347 11.8369C55.1387 12.0913 54.884 12.7538 54.9993 13.4595C55.1099 14.146 55.4752 14.5205 56.1673 14.6405C56.8786 14.7653 57.5274 14.5829 58.1522 14.2564C58.7145 13.9636 59.0942 13.5075 59.1951 12.8978C59.3057 12.2113 59.3201 11.5056 59.373 10.8095C59.3393 10.7999 59.3057 10.7903 59.272 10.7807ZM31.9009 16.3927C31.9009 16.484 31.9009 16.58 31.9009 16.676C32.9583 16.676 33.9772 16.676 35.0201 16.676C35.0201 16.5848 35.0201 16.5032 35.0201 16.4264C35.0201 14.6405 35.0201 12.8594 35.0249 11.0735C35.0249 10.6607 35.0442 10.243 35.0778 9.83016C35.1691 8.73079 35.7363 7.97708 36.7023 7.67943C37.2502 7.51141 37.8173 7.4826 38.3893 7.53541C38.519 7.54981 38.6536 7.55462 38.793 7.55942C38.793 6.49366 38.793 5.4567 38.793 4.41494C38.7257 4.40534 38.6728 4.39574 38.6151 4.39094C37.8269 4.34773 37.0483 4.41974 36.2794 4.59737C34.4963 5.01503 33.1602 5.99918 32.4152 7.70344C32.0019 8.64918 31.8721 9.64293 31.8865 10.6751C31.9202 12.5858 31.9009 14.4869 31.9009 16.3927ZM2.58772 18.8651C2.38105 18.8891 2.17439 18.9131 1.97253 18.9659C0.900753 19.2348 0.112545 19.8541 0.122157 21.2799C0.141382 24.4388 0.136575 30.1084 0.131769 34.3475H3.0443C3.0443 29.3643 3.0443 22.8113 3.0443 18.8651C2.87609 18.8651 2.7271 18.8507 2.58772 18.8651ZM86.7825 14.9045C86.201 15.7398 85.3983 16.2919 84.4323 16.604C83.0337 17.06 81.6159 17.0744 80.1933 16.7576C78.4102 16.3543 77.2038 15.231 76.555 13.5747C75.5072 10.8863 75.7428 8.32273 77.6027 6.02318C78.3573 5.09184 79.3906 4.62137 80.5489 4.41494C81.0439 4.32853 81.5486 4.30453 82.0484 4.25172C82.9424 4.29012 83.8219 4.39574 84.663 4.72699C85.9607 5.23106 86.8594 6.17201 87.4073 7.4058C88.5704 10.003 88.4358 12.5282 86.7825 14.9045ZM84.9225 10.6367C84.86 10.1566 84.8264 9.66693 84.7255 9.19166C84.5765 8.46195 84.2593 7.80905 83.6249 7.36739C82.1301 6.32563 80.0827 6.97373 79.4867 8.69238C79.0686 9.88776 79.0734 11.1168 79.4099 12.3265C79.7703 13.6275 80.5826 14.2852 81.9331 14.362C82.9616 14.4197 83.7979 14.0356 84.3314 13.1139C84.7735 12.3505 84.8793 11.5056 84.9225 10.6367ZM26.979 22.7105C26.5032 22.7537 26.0274 22.8209 25.5612 22.9313C22.8986 23.5506 21.4519 25.5573 21.3029 28.0393C21.2356 29.1915 21.2404 31.9855 21.2549 34.3475H24.3789C24.3789 32.4224 24.3789 30.2428 24.3837 29.4891C24.3885 29.0283 24.4029 28.5626 24.4461 28.1017C24.5519 26.9399 25.1478 26.1814 26.2292 25.9414C26.7339 25.831 27.277 25.8646 27.8008 25.8358C27.9066 25.831 28.0171 25.8502 28.1325 25.855C28.1325 24.7892 28.1325 23.7475 28.1325 22.7057C27.7288 22.7009 27.3491 22.6769 26.979 22.7105ZM39.8114 25.6725C40.2825 26.8439 40.2728 28.0729 40.2584 29.3355C37.3603 29.3355 34.4814 29.3355 31.5785 29.3355C31.6073 30.0892 31.7659 30.7661 32.2514 31.3326C32.7416 31.9087 33.3712 32.1919 34.121 32.2303C34.6833 32.2591 35.2408 32.2639 35.7791 32.0623C36.1203 31.9327 36.3847 31.7119 36.6153 31.443C36.673 31.3806 36.7643 31.3086 36.8412 31.3086C37.8649 31.299 38.8935 31.3038 39.9172 31.3038C39.946 31.3038 39.9748 31.3182 40.0181 31.3278C39.8691 31.9135 39.5471 32.3984 39.1722 32.8496C38.2062 34.0114 36.947 34.6067 35.4619 34.7747C34.0104 34.9379 32.6262 34.7555 31.319 34.0738C29.6897 33.2241 28.8053 31.8751 28.5554 30.0844C28.3728 28.7498 28.4064 27.4248 28.7861 26.119C29.3773 24.0691 31.1411 22.5617 33.2654 22.2928C34.3036 22.1632 35.3225 22.1968 36.3318 22.4753C38.038 22.9409 39.1626 24.0547 39.8114 25.6725ZM37.0143 27.2808C37.0046 25.8022 35.8896 24.7604 34.3276 24.7604C32.6743 24.7604 31.8188 25.927 31.6746 27.2808C33.4529 27.2808 35.236 27.2808 37.0143 27.2808ZM75.0122 0.915217C75.0122 4.63578 75.041 8.35634 74.993 12.0721C74.969 13.954 73.926 15.8647 71.7152 16.5752C69.8696 17.1657 68.024 17.0793 66.2265 16.3303C65.0298 15.8311 64.3329 14.8757 63.8763 13.7091C63.463 12.6578 63.3669 11.5584 63.4198 10.4351C63.4726 9.40769 63.6264 8.39955 64.0349 7.449C64.6597 5.98958 65.669 4.92382 67.2551 4.53976C68.5383 4.22771 69.7927 4.29013 70.8933 5.12545C71.2442 5.39429 71.5326 5.74474 71.8642 6.06639C71.8642 5.82156 71.8642 5.55752 71.8642 5.29828C71.8642 4.51576 71.8738 3.72844 71.8642 2.94592C71.845 1.55371 72.6043 0.900813 73.8251 0.670378C74.1231 0.612769 74.4307 0.622373 74.7335 0.60317C74.82 0.598369 74.9065 0.61277 75.017 0.617571C75.0122 0.727988 75.0122 0.824003 75.0122 0.915217ZM71.9603 10.5935C71.9315 10.3582 71.8978 9.87817 71.7969 9.40769C71.6095 8.53396 71.225 7.78505 70.3839 7.34818C69.1535 6.70969 67.702 7.18016 67.082 8.41875C66.8081 8.97083 66.6735 9.55652 66.6303 10.1662C66.5582 11.1072 66.6399 12.0337 67.0003 12.917C67.3464 13.7571 67.9568 14.29 68.8844 14.3812C69.884 14.4773 70.7395 14.218 71.3163 13.3251C71.8113 12.5714 71.9507 11.7216 71.9603 10.5935ZM30.1707 13.4883C30.0217 14.074 29.6997 14.5589 29.3248 15.0101C28.3588 16.1719 27.0996 16.7672 25.6145 16.9352C24.163 17.0985 22.7788 16.916 21.4716 16.2343C19.8423 15.3846 18.9579 14.0356 18.708 12.2449C18.5254 10.9103 18.559 9.58532 18.9387 8.27952C19.5299 6.22962 21.2937 4.72219 23.4181 4.45335C24.4562 4.32373 25.4751 4.35733 26.4844 4.63577C28.1954 5.10624 29.32 6.22002 29.9689 7.83786C30.4399 9.00924 30.4303 10.2382 30.4158 11.5008C27.5177 11.5008 24.6388 11.5008 21.7359 11.5008C21.7647 12.2545 21.9233 12.9314 22.4088 13.4979C22.899 14.074 23.5286 14.3572 24.2784 14.3956C24.8407 14.4245 25.3982 14.4293 25.9365 14.2276C26.2777 14.098 26.5421 13.8772 26.7728 13.6083C26.8304 13.5459 26.9218 13.4739 26.9987 13.4739C28.0224 13.4643 29.0509 13.4691 30.0746 13.4691C30.0986 13.4643 30.1275 13.4787 30.1707 13.4883ZM21.8272 9.4461C23.6103 9.4461 25.3886 9.4461 27.1669 9.4461C27.1573 7.96748 26.0422 6.92572 24.4802 6.92572C22.8269 6.92572 21.9714 8.0923 21.8272 9.4461ZM19.0632 22.9937C18.1693 22.9937 17.6887 23.3394 17.4436 24.1891C16.9389 25.9318 15.9969 28.7306 15.4634 30.5789C14.6704 27.7801 13.7765 25.7926 12.9834 22.9985H9.69123L13.5458 34.0594C13.6034 34.2274 13.762 34.3379 13.9399 34.3379H16.9341C17.1119 34.3379 17.2705 34.2274 17.3282 34.0594L21.2356 22.9889C20.4859 22.9937 19.7746 22.9937 19.0632 22.9937ZM5.48583 34.3475H8.60023C8.60023 30.5549 8.60023 25.6437 8.60023 23.0129C7.55248 23.0129 6.52397 23.0129 5.48583 23.0129C5.48583 25.6533 5.48583 30.5549 5.48583 34.3475Z" fill="#26337E"/>
</svg>
