<svg width="20" height="20" viewBox="0 0 20 20" fill="none" xmlns="http://www.w3.org/2000/svg">
<path d="M8.5 18C9.32843 18 10 17.3284 10 16.5C10 15.6716 9.32843 15 8.5 15C7.67157 15 7 15.6716 7 16.5C7 17.3284 7.67157 18 8.5 18Z" stroke="#333333" stroke-linecap="round" stroke-linejoin="round"/>
<path d="M16.5 18C17.3284 18 18 17.3284 18 16.5C18 15.6716 17.3284 15 16.5 15C15.6716 15 15 15.6716 15 16.5C15 17.3284 15.6716 18 16.5 18Z" stroke="#333333" stroke-linecap="round" stroke-linejoin="round"/>
<path d="M1.1669 2.5H4.50023L6.4 11.9917C6.4762 12.3753 6.68492 12.72 6.98962 12.9652C7.29432 13.2105 7.67558 13.3408 8.06666 13.3333H16.1667C16.5577 13.3408 16.939 13.2105 17.2437 12.9652C17.5484 12.72 17.7571 12.3753 17.8333 11.9917L19.1667 5H5" stroke="#333333" stroke-linecap="round" stroke-linejoin="round"/>
</svg>
