<svg width="20" height="15" viewBox="0 0 20 15" fill="none" xmlns="http://www.w3.org/2000/svg">
<path d="M17.8553 7.2745L17.3204 7.80024H17.3204L17.8553 7.2745ZM15.5824 4.96212L15.0475 5.48785L15.0475 5.48785L15.5824 4.96212ZM11.1018 7.39854C11.1018 7.81275 11.4376 8.14854 11.8518 8.14854C12.2661 8.14854 12.6018 7.81275 12.6018 7.39854H11.1018ZM10.1852 0.416656H3.33332V1.91666H10.1852V0.416656ZM0.916656 2.83332V10.3333H2.41666V2.83332H0.916656ZM19.0833 11.1667V8.44281H17.5833V11.1667H19.0833ZM18.3902 6.74876L16.1173 4.43638L15.0475 5.48785L17.3204 7.80024L18.3902 6.74876ZM12.6018 7.39854V4.46376H11.1018V7.39854H12.6018ZM12.6018 4.46376V2.83332H11.1018V4.46376H12.6018ZM14.3938 3.71376H11.8518V5.21376H14.3938V3.71376ZM3.33332 12.75H4.16666V11.25H3.33332V12.75ZM15.8333 12.75H17.5V11.25H15.8333V12.75ZM16.1173 4.43638C15.663 3.97412 15.042 3.71376 14.3938 3.71376V5.21376C14.6397 5.21376 14.8752 5.31252 15.0475 5.48785L16.1173 4.43638ZM19.0833 8.44281C19.0833 7.80909 18.8344 7.20072 18.3902 6.74876L17.3204 7.80024C17.4889 7.97167 17.5833 8.20243 17.5833 8.44281H19.0833ZM17.5833 11.1667C17.5833 11.2127 17.546 11.25 17.5 11.25V12.75C18.3744 12.75 19.0833 12.0411 19.0833 11.1667H17.5833ZM0.916656 10.3333C0.916656 11.668 1.99864 12.75 3.33332 12.75V11.25C2.82706 11.25 2.41666 10.8396 2.41666 10.3333H0.916656ZM3.33332 0.416656C1.99863 0.416656 0.916656 1.49864 0.916656 2.83332H2.41666C2.41666 2.32706 2.82706 1.91666 3.33332 1.91666V0.416656ZM10.1852 1.91666C10.6914 1.91666 11.1018 2.32706 11.1018 2.83332H12.6018C12.6018 1.49864 11.5199 0.416656 10.1852 0.416656V1.91666ZM15.0833 12C15.0833 12.5062 14.6729 12.9167 14.1667 12.9167V14.4167C15.5013 14.4167 16.5833 13.3347 16.5833 12H15.0833ZM14.1667 12.9167C13.6604 12.9167 13.25 12.5062 13.25 12H11.75C11.75 13.3347 12.832 14.4167 14.1667 14.4167V12.9167ZM13.25 12C13.25 11.4937 13.6604 11.0833 14.1667 11.0833V9.58332C12.832 9.58332 11.75 10.6653 11.75 12H13.25ZM14.1667 11.0833C14.6729 11.0833 15.0833 11.4937 15.0833 12H16.5833C16.5833 10.6653 15.5013 9.58332 14.1667 9.58332V11.0833ZM6.74999 12C6.74999 12.5062 6.33958 12.9167 5.83332 12.9167V14.4167C7.16801 14.4167 8.24999 13.3347 8.24999 12H6.74999ZM5.83332 12.9167C5.32706 12.9167 4.91666 12.5062 4.91666 12H3.41666C3.41666 13.3347 4.49864 14.4167 5.83332 14.4167V12.9167ZM4.91666 12C4.91666 11.4937 5.32706 11.0833 5.83332 11.0833V9.58332C4.49864 9.58332 3.41666 10.6653 3.41666 12H4.91666ZM5.83332 11.0833C6.33958 11.0833 6.74999 11.4937 6.74999 12H8.24999C8.24999 10.6653 7.16801 9.58332 5.83332 9.58332V11.0833ZM12.5 11.25H7.49999V12.75H12.5V11.25Z" fill="#39B54A"/>
</svg>
