<svg width="20" height="20" viewBox="0 0 20 20" fill="none" xmlns="http://www.w3.org/2000/svg">
<g clip-path="url(#clip0_831_1657)">
<path d="M12.8333 7.50001C12.8333 9.06482 11.5648 10.3333 10 10.3333V11.3333C12.1171 11.3333 13.8333 9.6171 13.8333 7.50001H12.8333ZM10 10.3333C8.43519 10.3333 7.16666 9.06482 7.16666 7.50001H6.16666C6.16666 9.6171 7.8829 11.3333 10 11.3333V10.3333ZM7.16666 7.50001C7.16666 5.9352 8.43519 4.66668 10 4.66668V3.66668C7.8829 3.66668 6.16666 5.38292 6.16666 7.50001H7.16666ZM10 4.66668C11.5648 4.66668 12.8333 5.9352 12.8333 7.50001H13.8333C13.8333 5.38292 12.1171 3.66668 10 3.66668V4.66668ZM4.49933 17.2093C5.51846 15.2049 7.5995 13.8334 10 13.8334V12.8334C7.20868 12.8334 4.79096 14.4293 3.60793 16.7561L4.49933 17.2093ZM10 13.8334C12.4005 13.8334 14.4816 15.2049 15.5007 17.2093L16.3921 16.7561C15.209 14.4293 12.7913 12.8334 10 12.8334V13.8334ZM18.6667 10C18.6667 14.7865 14.7865 18.6667 10 18.6667V19.6667C15.3388 19.6667 19.6667 15.3388 19.6667 10H18.6667ZM10 18.6667C5.21354 18.6667 1.33334 14.7865 1.33334 10H0.333344C0.333344 15.3388 4.66126 19.6667 10 19.6667V18.6667ZM1.33334 10C1.33334 5.21354 5.21354 1.33334 10 1.33334V0.333344C4.66126 0.333344 0.333344 4.66126 0.333344 10H1.33334ZM10 1.33334C14.7865 1.33334 18.6667 5.21354 18.6667 10H19.6667C19.6667 4.66126 15.3388 0.333344 10 0.333344V1.33334Z" fill="#333333"/>
</g>
<defs>
<clipPath id="clip0_831_1657">
<rect width="20" height="20" fill="white"/>
</clipPath>
</defs>
</svg>
